<svg width="25" height="24" fill="none" xmlns="http://www.w3.org/2000/svg"><path fill-rule="evenodd" clip-rule="evenodd" d="M12.445 0C5.562 0 0 5.48 0 12.262c0 5.425 3.58 10.037 8.535 11.665.606.108.826-.271.826-.597v-2.062c-3.469.76-4.185-1.627-4.185-1.627-.55-1.411-1.376-1.79-1.376-1.79-1.157-.76.11-.76.11-.76 1.266.108 1.927 1.247 1.927 1.247 1.101 1.9 2.919 1.357 3.634 1.031.11-.814.44-1.356.771-1.627-2.753-.326-5.672-1.357-5.672-6.077 0-1.356.496-2.441 1.267-3.31-.11-.325-.55-1.573.11-3.255 0 0 1.046-.325 3.414 1.248a11.842 11.842 0 0 1 3.139-.434c1.046 0 2.148.163 3.139.434C18.007 4.775 19.053 5.1 19.053 5.1c.66 1.682.275 2.93.11 3.255.826.868 1.267 1.954 1.267 3.31 0 4.72-2.919 5.751-5.672 6.077.44.38.826 1.139.826 2.278v3.364c0 .326.22.706.88.597C21.422 22.353 25 17.741 25 12.316 25 5.534 19.438.054 12.555.054L12.445 0z" fill="#90A4AE"/></svg>