<svg width="96" height="96" fill="none" xmlns="http://www.w3.org/2000/svg"><path fill-rule="evenodd" clip-rule="evenodd" d="M95.995 56.835c0-10.56-8.2-19.12-18.6-19.84-2.72-13.8-14.84-24.16-29.4-24.16-5.32 0-10.28 1.44-14.6 3.88l5.96 5.96c2.68-1.16 5.56-1.84 8.64-1.84 12.16 0 22 9.84 22 22v2h6c6.64 0 12 5.36 12 12 0 3.96-1.92 7.4-4.84 9.6l5.64 5.64c4.36-3.68 7.2-9.08 7.2-15.24zm-81.16-41.76a3.983 3.983 0 000 5.64l8.24 8.24h-1.68c-13.12 1.4-23.04 13.36-21.16 27.16 1.6 12.08 12.52 20.72 24.64 20.72h46.04l5.16 5.16a3.983 3.983 0 005.64 0 3.983 3.983 0 000-5.64l-61.24-61.28a3.984 3.984 0 00-5.64 0zm-6.84 37.76c0 8.84 7.16 16 16 16h38.92l-32-32h-6.92c-8.84 0-16 7.16-16 16z" fill="#B0BEC5"/></svg>